<svg xmlns="http://www.w3.org/2000/svg" viewBox="0 0 512 512" role="img" aria-label="Instituto Nefrance">
  <defs>
    <linearGradient id="g" x1="0" y1="0" x2="1" y2="0">
      <stop offset="0%" stop-color="#5B3FB8"/>
      <stop offset="35%" stop-color="#2E7BD6"/>
      <stop offset="70%" stop-color="#3FB89B"/>
      <stop offset="100%" stop-color="#A8D866"/>
    </linearGradient>
  </defs>
  <g fill="none" stroke="url(#g)" stroke-width="9" stroke-linecap="round" stroke-linejoin="round">
    <path d="M256 380 L256 195"/>
    <path d="M256 240 L208 200"/>
    <path d="M256 240 L304 200"/>
    <path d="M256 215 L228 175"/>
    <path d="M256 215 L284 175"/>
    <path d="M256 270 L200 250"/>
    <path d="M256 270 L312 250"/>
    <path d="M256 305 L220 295"/>
    <path d="M256 305 L292 295"/>
    <path d="M180 280 C150 250 150 210 185 185 C175 150 215 130 240 150 C255 130 285 130 295 155 C335 150 350 195 325 220 C355 245 345 290 310 295"/>
  </g>
  <g fill="url(#g)">
    <circle cx="256" cy="195" r="11"/>
    <circle cx="208" cy="200" r="10"/>
    <circle cx="304" cy="200" r="10"/>
    <circle cx="228" cy="175" r="8"/>
    <circle cx="284" cy="175" r="8"/>
    <circle cx="200" cy="250" r="9"/>
    <circle cx="312" cy="250" r="9"/>
    <circle cx="220" cy="295" r="8"/>
    <circle cx="292" cy="295" r="8"/>
    <circle cx="185" cy="185" r="7"/>
    <circle cx="240" cy="150" r="6"/>
    <circle cx="295" cy="155" r="6"/>
  </g>
  <text x="256" y="440" font-family="Helvetica, Arial, sans-serif" font-weight="700" font-size="38" letter-spacing="2" fill="#3F8FD6" text-anchor="middle">INSTITUTO NEFRANCE</text>
  <text x="256" y="475" font-family="Helvetica, Arial, sans-serif" font-weight="500" font-size="20" letter-spacing="3" fill="#7AB89B" text-anchor="middle">EDUCAÇÃO COM PROPÓSITO</text>
</svg>
