<svg xmlns="http://www.w3.org/2000/svg" viewBox="0 0 200 200" role="img" aria-label="Instituto Nefrance">
  <g fill="none" stroke="currentColor" stroke-width="4" stroke-linecap="round" stroke-linejoin="round">
    <path d="M100 150 L100 75"/>
    <path d="M100 95 L80 80"/>
    <path d="M100 95 L120 80"/>
    <path d="M100 85 L88 70"/>
    <path d="M100 85 L112 70"/>
    <path d="M100 108 L78 100"/>
    <path d="M100 108 L122 100"/>
    <path d="M100 122 L84 118"/>
    <path d="M100 122 L116 118"/>
    <path d="M72 112 C60 100 60 84 74 74 C70 60 86 52 96 60 C102 52 114 52 118 62 C134 60 140 78 130 88 C142 98 138 116 124 118"/>
  </g>
  <g fill="currentColor">
    <circle cx="100" cy="75" r="4.5"/>
    <circle cx="80" cy="80" r="4"/>
    <circle cx="120" cy="80" r="4"/>
    <circle cx="88" cy="70" r="3.2"/>
    <circle cx="112" cy="70" r="3.2"/>
    <circle cx="78" cy="100" r="3.6"/>
    <circle cx="122" cy="100" r="3.6"/>
    <circle cx="84" cy="118" r="3.2"/>
    <circle cx="116" cy="118" r="3.2"/>
    <circle cx="74" cy="74" r="2.8"/>
    <circle cx="96" cy="60" r="2.4"/>
    <circle cx="118" cy="62" r="2.4"/>
  </g>
</svg>
